# xmcd
# 
# Track frame offsets:
#     150
#     24190
#     51166
#     81655
#     106980
#     141027
#     165381
#     184861
# 
# Disc length: 2841
# 
# Revision: 2
# Processed by: cddbd v1.5.2PL0 Copyright (c) Steve Scherf et al.
# Submitted via: fre:ac v1.0.31
# 
DISCID=610b1708
DTITLE=Sonny Landreth - Recorded Live In Lafayette (Acoustic and Electric Sets) Disc 1
DYEAR=2017
DGENRE=Blues
TTITLE0=Blues Attack
TTITLE1=Hell At Home
TTITLE2=Key To The Highway
TTITLE3=Creole Angel
TTITLE4=A World Away
TTITLE5=The High Side
TTITLE6=Bound By The Blues
TTITLE7=The U.S.S. Zydecoldsmobile
EXTD=
EXTT0=
EXTT1=
EXTT2=
EXTT3=
EXTT4=
EXTT5=
EXTT6=
EXTT7=
PLAYORDER=
